<svg width="512" height="512" viewBox="0 0 512 512" fill="none" xmlns="http://www.w3.org/2000/svg">
  <circle cx="256" cy="256" r="248" fill="white" stroke="#1D64B6" stroke-width="8"/>
  <circle cx="256" cy="256" r="182" fill="white" stroke="#1D64B6" stroke-width="8"/>
  <circle cx="256" cy="256" r="140" fill="#1D64B6"/>
  <path d="M214 140L148 228C138 242 136 262 144 278L195 378C201 389 212 396 225 396H247L185 304C174 288 174 267 185 251L231 180L214 140Z" fill="#C8942F"/>
  <path d="M252 140L331 251C342 267 342 288 331 304L285 374C278 388 263 396 247 396H287C300 396 312 389 318 378L369 278C377 262 375 242 365 228L299 140H252Z" fill="#C8942F"/>
  <path d="M226 244L206 274C197 287 197 303 206 316L251 382H287L229 299C223 291 223 280 229 272L256 232L226 244Z" fill="#1D64B6"/>
  <path d="M226 244L244 216C249 208 261 208 266 216L295 260C303 273 294 288 279 288H262L283 321C289 329 301 329 307 321L332 282C338 273 338 261 332 252L276 171C268 159 250 159 242 171L181 252C175 261 175 273 181 282L231 356L252 382L206 316C197 303 197 287 206 274L226 244Z" fill="#C8942F"/>
  <text x="256" y="430" text-anchor="middle" fill="#1D64B6" font-size="42" font-family="Georgia, serif">AJOU</text>
</svg>
